<?xml version="1.0" encoding="UTF-8"?>
<svg width="97px" height="34px" viewBox="0 0 97 34" version="1.1" xmlns="http://www.w3.org/2000/svg" xmlns:xlink="http://www.w3.org/1999/xlink">
    <!-- Generator: Sketch 43.1 (39012) - http://www.bohemiancoding.com/sketch -->
    <title>Artboard 12</title>
    <desc>Created with Sketch.</desc>
    <defs></defs>
    <g id="Page-1" stroke="none" stroke-width="1" fill="none" fill-rule="evenodd">
        <g id="Artboard-12" fill="#FFFFFF">
            <g id="loom-logo" transform="translate(8.000000, 6.000000)">
                <g id="text">
                    <rect id="Rectangle-path" x="0" y="0" width="2.89948346" height="19.3800497"></rect>
                    <path d="M11.2896831,7.97905551 C9.69237522,7.92959171 8.14319094,8.54122701 6.9934385,9.67526098 C5.86396601,10.8010735 5.24689177,12.3583159 5.29163758,13.9699089 C5.2462835,15.5790351 5.85816067,17.1349047 6.98059472,18.2645568 C8.12417872,19.4001103 9.67014855,20.0123067 11.2639955,19.9607622 C12.8578425,20.0123067 14.4038123,19.4001103 15.5473963,18.2645568 C16.6728357,17.1261542 17.2846107,15.5610373 17.2363535,13.943662 C17.2801712,12.3467101 16.6745166,10.8025739 15.5634511,9.67854184 C14.4237658,8.54266338 12.8810081,7.92917767 11.2896831,7.97905551 L11.2896831,7.97905551 Z M14.0992601,13.9699089 C14.125277,14.7684594 13.840024,15.5449109 13.3061566,16.1287158 C12.7834558,16.6909949 12.0515785,16.9999003 11.292894,16.978459 C10.5215167,17.002554 9.77576173,16.6941848 9.23788915,16.1287158 C8.69353668,15.5401388 8.4031803,14.7529355 8.43194192,13.943662 C8.40774686,13.1520132 8.69582734,12.3836211 9.23146726,11.8111019 C10.3602254,10.6858371 12.1613438,10.6858371 13.2901019,11.8111019 C13.830306,12.390412 14.1206165,13.1668547 14.0960491,13.966628 L14.0992601,13.9699089 Z" id="Shape"></path>
                    <path d="M24.5637303,7.97905551 C22.9664224,7.92959171 21.4172381,8.54122701 20.2674857,9.67526098 C19.1380132,10.8010735 18.520939,12.3583159 18.5656848,13.9699089 C18.5203307,15.5790351 19.1322079,17.1349047 20.2546419,18.2645568 C22.6805403,20.5250051 26.3923342,20.5250051 28.8182326,18.2645568 C29.9433249,17.124809 30.5539787,15.5583964 30.5039788,13.9403811 C30.5477965,12.3434293 29.9421419,10.799293 28.8310764,9.67526098 C27.6924256,8.54224481 26.1523855,7.93010214 24.5637303,7.97905551 L24.5637303,7.97905551 Z M27.3733073,13.9699089 C27.3993242,14.7684594 27.1140712,15.5449109 26.5802038,16.1287158 C26.057503,16.6909949 25.3256257,16.9999003 24.5669412,16.978459 C23.7955639,17.002554 23.0498089,16.6941848 22.5119363,16.1287158 C21.9675839,15.5401388 21.6772275,14.7529355 21.7059891,13.943662 C21.6826527,13.1515439 21.9719143,12.3830875 22.5087254,11.8111019 C23.6374835,10.6858371 25.4386019,10.6858371 26.56736,11.8111019 C27.1075641,12.390412 27.3978746,13.1668547 27.3733073,13.966628 L27.3733073,13.9699089 Z" id="Shape"></path>
                    <path d="M49.1274606,9.42919635 C48.2669273,8.46462303 47.0596119,7.97905551 45.531202,7.97905551 C43.9522187,7.91497178 42.4441156,8.65167674 41.5014659,9.94757249 C40.6345107,8.63522784 39.3565545,7.97905551 37.7029178,7.97905551 C36.049281,7.97905551 34.8130672,8.46462303 33.8786821,9.42591549 C32.9442971,10.387208 32.4915538,11.7225186 32.4915538,13.4121624 L32.4915538,19.6228335 L35.641491,19.6228335 L35.641491,13.4121624 C35.6001116,12.7603398 35.8020493,12.1167158 36.2066173,11.6109693 C36.6267351,11.1728639 37.2131041,10.9439936 37.8120899,10.9843248 C38.391216,10.9574381 38.9514039,11.1984426 39.3372888,11.6404971 C39.7389511,12.1333464 39.9461934,12.7615914 39.9184699,13.4023198 L39.9184699,19.6129909 L43.0266648,19.6129909 L43.0266648,13.4121624 C43.0049592,12.7672104 43.2361292,12.1400898 43.6688538,11.6700249 C44.0909088,11.2189558 44.6798458,10.9711019 45.2903811,10.9876056 C45.8500355,10.9534989 46.3930496,11.1890318 46.7577831,11.6240928 C47.1361975,12.1383807 47.3239183,12.7730916 47.287589,13.4154432 L47.287589,19.6261143 L50.4118386,19.6261143 L50.4118386,13.4121624 C50.4118386,11.7290804 49.9879939,10.387208 49.1274606,9.42919635 L49.1274606,9.42919635 Z" id="Shape"></path>
                </g>
                <g id="logo" transform="translate(55.549351, 1.968517)">
                    <path d="M17.8817535,21.2173322 L1.86234818,9.73431649 C0.754518508,8.94020574 0.0949834187,7.64424903 0.0949834187,6.26152444 C0.0949834187,4.87879985 0.754518508,3.58284315 1.86234818,2.78873239 L5.74438085,3.55271368e-15 L21.7637861,11.4830157 C22.8716158,12.2771265 23.5311509,13.5730832 23.5311509,14.9558078 C23.5311509,16.3385324 22.8716158,17.6344891 21.7637861,18.4285998 L17.8817535,21.2173322 Z M5.7411699,1.86024855 L2.71645958,4.02233637 C2.00257036,4.53244218 1.57732939,5.36650117 1.57732939,6.25660315 C1.57732939,7.14670513 2.00257036,7.98076412 2.71645958,8.49086993 L17.8849644,19.3570837 L20.9096747,17.1949959 C21.6235639,16.68489 22.0488049,15.8508311 22.0488049,14.9607291 C22.0488049,14.0706271 21.6235639,13.2365681 20.9096747,12.7264623 L5.7411699,1.86024855 Z" id="Shape"></path>
                    <path d="M5.72832612,19.3570837 L2.70682675,17.191715 C1.99293753,16.6816092 1.56769656,15.8475502 1.56769656,14.9574482 C1.56769656,14.0673462 1.99293753,13.2332873 2.70682675,12.7231814 L10.5222672,7.14571665 L9.23788915,6.22051367 L1.86234818,11.4830157 C0.754518508,12.2771265 0.0949834187,13.5730832 0.0949834187,14.9558078 C0.0949834187,16.3385324 0.754518508,17.6344891 1.86234818,18.4285998 L5.73153707,21.2042088 L10.5190563,17.7822701 L9.23467821,16.8570671 L5.72832612,19.3570837 Z" id="Shape"></path>
                    <path d="M21.770208,2.79529412 L17.8978082,0.0196851698 L13.107078,3.44490472 L14.3914561,4.37010771 L17.8913863,1.86681027 L20.9128857,4.03217896 C21.6267749,4.54228477 22.0520159,5.37634375 22.0520159,6.26644573 C22.0520159,7.15654772 21.6267749,7.9906067 20.9128857,8.50071251 L13.0974452,14.0781773 L14.3818233,15.0033803 L21.7669971,9.73103563 C22.8748267,8.93692487 23.5343618,7.64096817 23.5343618,6.25824358 C23.5343618,4.87551899 22.8748267,3.57956228 21.7669971,2.78545153 L21.770208,2.79529412 Z" id="Shape"></path>
                    <rect id="Rectangle-path" transform="translate(6.290783, 9.256890) rotate(-34.980000) translate(-6.290783, -9.256890) " x="2.57250829" y="8.50065107" width="7.43654893" height="1.51247722"></rect>
                    <path d="M20.132626,9.06173985 L17.1657127,11.1844573 L18.0134022,12.424623 L21.0926986,10.2231649 C20.7651822,9.84258492 20.4505096,9.45216239 20.132626,9.06173985 L20.132626,9.06173985 Z" id="Shape"></path>
                </g>
            </g>
        </g>
    </g>
</svg>