<?xml version="1.0" encoding="UTF-8"?>
<svg width="563px" height="115px" viewBox="0 0 563 115" version="1.1" xmlns="http://www.w3.org/2000/svg" xmlns:xlink="http://www.w3.org/1999/xlink">
    <!-- Generator: Sketch 43.1 (39012) - http://www.bohemiancoding.com/sketch -->
    <title>Group 92</title>
    <desc>Created with Sketch.</desc>
    <defs>
        <polygon id="path-1" points="623 369.717632 0 369.717632 0 185.08398 0 0.450328947 623 0.450328947"></polygon>
        <filter x="-0.4%" y="-0.7%" width="100.8%" height="101.4%" filterUnits="objectBoundingBox" id="filter-2">
            <feGaussianBlur stdDeviation="0.864955357" in="SourceGraphic"></feGaussianBlur>
        </filter>
    </defs>
    <g id="Page-1" stroke="none" stroke-width="1" fill="none" fill-rule="evenodd">
        <g id="Artboard-9" transform="translate(-16.000000, -20.000000)">
            <g id="Group-92" transform="translate(322.500000, 185.000000) scale(-1, 1) translate(-322.500000, -185.000000) translate(11.000000, 0.000000)">
                <mask id="mask-3" fill="white">
                    <use xlink:href="#path-1"></use>
                </mask>
                <g id="Clip-32" filter="url(#filter-2)"></g>
                <path d="M251.176078,59.8818906 C251.19068,60.1662064 251.210148,60.4495485 251.229617,60.7338643 C251.361031,62.8229038 254.344617,62.8277722 254.476031,60.7338643 C254.4955,60.4495485 254.514969,60.1662064 254.52957,59.8818906 C254.665852,57.7227459 251.039797,57.7207985 251.176078,59.8818906" id="Fill-62" fill="#C2BED4" mask="url(#mask-3)"></path>
                <path d="M279.69293,37.8678643 C277.692516,37.8678643 277.687648,40.9826801 279.69293,40.9826801 C281.703078,40.9826801 281.703078,37.8678643 279.69293,37.8678643" id="Fill-63" fill="#C2BED4" mask="url(#mask-3)"></path>
                <path d="M384.517547,69.3324696 C383.510039,69.3324696 383.510039,70.8898775 384.517547,70.8898775 C385.520188,70.8898775 385.520188,69.3324696 384.517547,69.3324696" id="Fill-64" fill="#C2BED4" mask="url(#mask-3)"></path>
                <path d="M197.885242,128.877641 C194.53175,128.877641 194.526883,134.09172 197.885242,134.09172 C201.243602,134.09172 201.248469,128.877641 197.885242,128.877641" id="Fill-65" fill="#C2BED4" mask="url(#mask-3)"></path>
                <path d="M289.923758,101.136891 C287.066719,101.136891 287.061852,105.572509 289.923758,105.572509 C292.77593,105.572509 292.780797,101.136891 289.923758,101.136891" id="Fill-66" fill="#C2BED4" mask="url(#mask-3)"></path>
                <path d="M352.559594,116.72022 C350.014055,116.72022 350.009187,120.674838 352.559594,120.674838 C355.105133,120.674838 355.105133,116.72022 352.559594,116.72022" id="Fill-67" fill="#C2BED4" mask="url(#mask-3)"></path>
                <path d="M248.8885,130.204772 C248.937172,130.91118 248.966375,131.437456 249.311945,132.058667 C249.725656,132.799154 250.864578,132.799154 251.278289,132.058667 C251.628727,131.437456 251.653062,130.903877 251.701734,130.204772 C251.833148,128.392746 248.757086,128.390312 248.8885,130.204772" id="Fill-68" fill="#C2BED4" mask="url(#mask-3)"></path>
                <path d="M153.146055,90.3499301 C151.218648,90.3499301 151.218648,93.3464433 153.146055,93.3464433 C155.073461,93.3464433 155.078328,90.3499301 153.146055,90.3499301" id="Fill-69" fill="#C2BED4" mask="url(#mask-3)"></path>
                <path d="M94.3455625,131.23347 C92.3792188,131.23347 92.3792188,134.290838 94.3455625,134.290838 C96.3119063,134.290838 96.3167734,131.23347 94.3455625,131.23347" id="Fill-70" fill="#C2BED4" mask="url(#mask-3)"></path>
                <path d="M171.042703,28.1164169 C169.655555,28.1164169 169.655555,30.2760485 171.042703,30.2760485 C172.429852,30.2760485 172.434719,28.1164169 171.042703,28.1164169" id="Fill-71" fill="#C2BED4" mask="url(#mask-3)"></path>
                <path d="M183.823937,59.9330091 C182.246969,59.9330091 182.242102,62.390588 183.823937,62.390588 C185.405773,62.390588 185.410641,59.9330091 183.823937,59.9330091" id="Fill-72" fill="#C2BED4" mask="url(#mask-3)"></path>
                <path d="M390.908164,44.3209564 C388.980758,44.3209564 388.975891,47.3169827 390.908164,47.3169827 C392.83557,47.3169827 392.840437,44.3209564 390.908164,44.3209564" id="Fill-73" fill="#C2BED4" mask="url(#mask-3)"></path>
                <path d="M516.179836,58.2344169 C514.057742,58.2344169 514.052875,61.5298512 516.179836,61.5298512 C518.297062,61.5298512 518.30193,58.2344169 516.179836,58.2344169" id="Fill-74" fill="#C2BED4" mask="url(#mask-3)"></path>
                <path d="M550.693063,30.6450748 C549.266977,30.6450748 549.262109,32.8611801 550.693063,32.8611801 C552.119148,32.8611801 552.119148,30.6450748 550.693063,30.6450748" id="Fill-75" fill="#C2BED4" mask="url(#mask-3)"></path>
                <path d="M548.137789,39.6239038 C546.745773,39.6239038 546.745773,41.7835354 548.137789,41.7835354 C549.52007,41.7835354 549.524937,39.6239038 548.137789,39.6239038" id="Fill-76" fill="#C2BED4" mask="url(#mask-3)"></path>
                <path d="M463.769961,43.9592327 C461.375305,43.9592327 461.375305,47.6762722 463.769961,47.6762722 C466.15975,47.6762722 466.164617,43.9592327 463.769961,43.9592327" id="Fill-77" fill="#C2BED4" mask="url(#mask-3)"></path>
                <path d="M466.325234,79.4295748 C463.507133,79.4295748 463.507133,83.8067722 466.325234,83.8067722 C469.138469,83.8067722 469.143336,79.4295748 466.325234,79.4295748" id="Fill-78" fill="#C2BED4" mask="url(#mask-3)"></path>
                <path d="M448.428586,27.0779827 C447.34807,27.0779827 447.34807,28.7566143 448.428586,28.7566143 C449.509102,28.7566143 449.509102,27.0779827 448.428586,27.0779827" id="Fill-79" fill="#C2BED4" mask="url(#mask-3)"></path>
                <path d="M470.160578,35.2807854 C468.116359,35.2807854 468.111492,38.4569433 470.160578,38.4569433 C472.204797,38.4569433 472.209664,35.2807854 470.160578,35.2807854" id="Fill-80" fill="#C2BED4" mask="url(#mask-3)"></path>
                <path d="M576.255531,82.5570485 C574.172375,82.5570485 574.172375,85.7940617 576.255531,85.7940617 C578.338687,85.7940617 578.343555,82.5570485 576.255531,82.5570485" id="Fill-81" fill="#C2BED4" mask="url(#mask-3)"></path>
                <path d="M577.536887,114.653575 C577.262611,114.653575 577.262611,115.074964 577.536887,115.074964 C577.806266,115.074964 577.806266,114.653575 577.536887,114.653575" id="Fill-82" fill="#C2BED4" mask="url(#mask-3)"></path>
                <path d="M595.43225,109.077772 C592.925648,109.077772 592.920781,112.974456 595.43225,112.974456 C597.933984,112.974456 597.943719,109.077772 595.43225,109.077772" id="Fill-83" fill="#C2BED4" mask="url(#mask-3)"></path>
                <path d="M517.751937,103.05797 C517.566984,102.818443 517.382031,102.57843 517.192211,102.33793 C516.389125,101.299496 514.739148,102.219141 514.739148,103.354456 C514.739148,104.494641 516.393992,105.404549 517.192211,104.370983 C517.382031,104.130483 517.566984,103.890956 517.751937,103.650456 C517.90282,103.453772 517.907687,103.257575 517.751937,103.05797" id="Fill-84" fill="#C2BED4" mask="url(#mask-3)"></path>
                <path d="M615.884172,20.0270485 C613.956766,20.0270485 613.951898,23.0235617 615.884172,23.0235617 C617.811578,23.0235617 617.816445,20.0270485 615.884172,20.0270485" id="Fill-85" fill="#C2BED4" mask="url(#mask-3)"></path>
                <path d="M330.827602,42.8312196 C328.6325,42.8312196 328.627633,46.2469038 330.827602,46.2469038 C333.02757,46.2469038 333.02757,42.8312196 330.827602,42.8312196" id="Fill-86" fill="#C2BED4" mask="url(#mask-3)"></path>
                <path d="M57.2770625,67.2453775 C55.2328438,67.2453775 55.2279766,70.4220222 57.2770625,70.4220222 C59.3212813,70.4220222 59.3212813,67.2453775 57.2770625,67.2453775" id="Fill-87" fill="#C2BED4" mask="url(#mask-3)"></path>
                <path d="M99.4609766,79.0809959 C97.8402031,79.0809959 97.8402031,81.5989433 99.4609766,81.5989433 C101.076883,81.5989433 101.08175,79.0809959 99.4609766,79.0809959" id="Fill-88" fill="#C2BED4" mask="url(#mask-3)"></path>
                <path d="M98.1809062,61.9008248 C97.4897656,61.9008248 97.4848984,62.9782064 98.1809062,62.9782064 C98.8769141,62.9782064 98.8769141,61.9008248 98.1809062,61.9008248" id="Fill-89" fill="#C2BED4" mask="url(#mask-3)"></path>
                <path d="M102.01625,52.2009827 C100.356539,52.2009827 100.356539,54.7773512 102.01625,54.7773512 C103.675961,54.7773512 103.675961,52.2009827 102.01625,52.2009827" id="Fill-90" fill="#C2BED4" mask="url(#mask-3)"></path>
                <path d="M77.7289844,23.8029959 C75.7237031,23.8029959 75.7188359,26.9173248 77.7289844,26.9173248 C79.7342656,26.9173248 79.7391328,23.8029959 77.7289844,23.8029959" id="Fill-91" fill="#C2BED4" mask="url(#mask-3)"></path>
            </g>
        </g>
    </g>
</svg>